<?xml version="1.0" encoding="UTF-8" standalone="no"?>
<svg
   xmlns:dc="http://purl.org/dc/elements/1.1/"
   xmlns:cc="http://creativecommons.org/ns#"
   xmlns:rdf="http://www.w3.org/1999/02/22-rdf-syntax-ns#"
   xmlns:svg="http://www.w3.org/2000/svg"
   xmlns="http://www.w3.org/2000/svg"
   xmlns:sodipodi="http://sodipodi.sourceforge.net/DTD/sodipodi-0.dtd"
   xmlns:inkscape="http://www.inkscape.org/namespaces/inkscape"
   width="242.94148mm"
   height="154.82716mm"
   viewBox="0 0 242.94148 154.82716"
   version="1.1"
   id="svg8"
   inkscape:version="1.0.2 (e86c870879, 2021-01-15)"
   sodipodi:docname="hat.svg">
  <defs
     id="defs2" />
  <sodipodi:namedview
     id="base"
     pagecolor="#ffffff"
     bordercolor="#666666"
     borderopacity="1.0"
     inkscape:pageopacity="0.0"
     inkscape:pageshadow="2"
     inkscape:zoom="0.89706349"
     inkscape:cx="530.41058"
     inkscape:cy="285.70928"
     inkscape:document-units="mm"
     inkscape:current-layer="layer1"
     inkscape:document-rotation="0"
     showgrid="false"
     showborder="true"
     inkscape:window-width="1920"
     inkscape:window-height="1060"
     inkscape:window-x="1366"
     inkscape:window-y="0"
     inkscape:window-maximized="1" />
  <metadata
     id="metadata5">
    <rdf:RDF>
      <cc:Work
         rdf:about="">
        <dc:format>image/svg+xml</dc:format>
        <dc:type
           rdf:resource="http://purl.org/dc/dcmitype/StillImage" />
        <dc:title></dc:title>
      </cc:Work>
    </rdf:RDF>
  </metadata>
  <g
     inkscape:label="Layer 1"
     inkscape:groupmode="layer"
     id="layer1"
     transform="translate(100.43475,53.344918)">
    <path
       style="fill:#542538;fill-opacity:1;stroke:#000000;stroke-width:0.237018px;stroke-linecap:butt;stroke-linejoin:miter;stroke-opacity:1"
       d="m -54.14592,52.678234 -46.01663,17.354827 c 0,0 52.682937,31.330669 116.294525,31.330669 64.452226,0 126.078655,-26.56634 126.078655,-26.56634 L 91.862561,52.524289 c 0,0 -20.117959,16.139974 -73.098501,16.139974 -53.966834,0 -72.90998,-15.986029 -72.90998,-15.986029 z"
       id="path833"
       sodipodi:nodetypes="ccsccsc" />
    <path
       style="fill:#542538;fill-opacity:1;stroke:#000000;stroke-width:0;stroke-linecap:butt;stroke-linejoin:miter;stroke-miterlimit:4;stroke-dasharray:none;stroke-opacity:1"
       d="m -47.896672,42.162484 c 0,0 15.192999,15.406188 65.187436,15.406188 42.13193,0 69.886982,-13.274585 69.886982,-13.274585 0,0 -61.165938,-64.314556 -36.620076,-62.131865 24.545864,2.182688 27.253138,11.2307874 30.657573,7.096762 4.520907,-5.489763 -52.305165,-53.782844 -69.689994,-40.207922 -21.5057519,16.79274 -59.421921,93.111422 -59.421921,93.111422 z"
       id="path835"
       sodipodi:nodetypes="cscsssc" />
  </g>
</svg>
